<?xml version="1.0" encoding="utf-8"?>
<!-- Generator: Adobe Illustrator 19.0.0, SVG Export Plug-In . SVG Version: 6.00 Build 0)  -->
<svg version="1.1" id="图层_1" xmlns="http://www.w3.org/2000/svg" xmlns:xlink="http://www.w3.org/1999/xlink" x="0px" y="0px"
	 viewBox="0 0 400 400" enable-background="new 0 0 400 400" xml:space="preserve">
<g id="XMLID_142_">
	<g id="XMLID_143_">
		<path id="XMLID_144_" fill="#F4EA2A" d="M339.4,138c8.5-8.5,8.5-22.4,0-31l-41.9-41.8c-8.6-8.6-22.4-8.6-31,0l-42.6,42.6
			l72.8,72.9L339.4,138z M96.1,235.6c-4.4,4.4-7.8,9.9-9.7,15.9l-18,65.9c-3.6,11.5,7.2,22.3,18.7,18.7l65.9-18
			c6-1.9,11.5-5.2,15.9-9.6l16.4-16.4l-72.7-73L96.1,235.6z M148,70c-9.3-9.3-24.5-9.3-33.8,0l-39.5,39.5c-9.3,9.3-9.3,24.5,0,33.8
			L93.4,162l34.7-34.7c4.6-4.7,12.2-4.7,16.9,0c4.6,4.7,4.6,12.2,0,16.9l-34.7,34.7l16.9,16.9l20.6-20.7c4.6-4.7,12.2-4.7,16.9,0
			c4.6,4.7,4.6,12.2,0,16.9L144,212.7l16.9,16.9l34.6-34.7c4.6-4.7,12.2-4.7,16.9,0c4.6,4.7,4.6,12.2,0,16.9l-34.6,34.7l16.9,16.9
			l0.2-0.2l20.4-20.5c4.6-4.7,12.2-4.7,16.9,0c4.6,4.7,4.6,12.2,0,16.9L211.6,280c0,0-0.1,0.1-0.2,0.1l16.9,16.9l34.6-34.6
			c4.6-4.7,12.2-4.7,16.9,0c4.6,4.7,4.6,12.2,0,16.9l-34.6,34.6l20.3,20.3c9.3,9.3,24.5,9.3,33.8,0l39.5-39.5
			c9.3-9.3,9.3-24.5,0-33.8L148,70z M148,70"/>
	</g>
</g>
</svg>
