<?xml version="1.0" encoding="utf-8"?>
<!-- Generator: Adobe Illustrator 19.0.0, SVG Export Plug-In . SVG Version: 6.00 Build 0)  -->
<svg version="1.1" id="图层_1" xmlns="http://www.w3.org/2000/svg" xmlns:xlink="http://www.w3.org/1999/xlink" x="0px" y="0px"
	 viewBox="0 0 400 400" enable-background="new 0 0 400 400" xml:space="preserve">
<path id="XMLID_18_" fill="#77E882" d="M62.5,131.4c2.9,0.9,5.9,1.3,9,1.3c15.9-0.4,83,0,95.5,33.7c0,0,11.8,17.8,10.6,83
	c-1.2,65.4-2.2,89.6,0.1,91.5c2.3,1.9,23.4,16.8,38.8,0c0,0,7-1.9,8.2-34.5c1.2-32.7,0-102.7,0-102.7S217.7,166,328,163.6
	c2.1-0.1,4.3-0.3,6.3-0.9c10.1-2.6,36.9-12.6,27.8-44c-2.1-7.5-7.3-13.7-14.1-17.4c-15.6-8.4-48.8-20.4-89.2-0.3
	c-12.4,6.2-21.6,11.4-28.6,16.1c-14.7,9.9-34.3,3.9-41.8-12.2C180.7,88.7,168,73,147,64.6C92.8,43.2,44.6,45.1,36.4,86.1
	C30,117.4,51.8,128.1,62.5,131.4L62.5,131.4z"/>
<path id="XMLID_17_" fill="#FFFE9F" d="M62.5,131.4"/>
<path id="XMLID_12_" fill="#493B4E" d="M199.2,357.8c-11.8,0-22.4-6.1-27.2-9.9c-5.2-4.3-5.1-6.6-3.9-66.2
	c0.2-9.5,0.4-20.2,0.6-32.4c1-58.5-8.6-77-9.2-78.1l-0.5-0.7l-0.4-1c-8.1-21.9-51.9-28.7-87-27.9c-4,0.1-8.1-0.5-11.8-1.7
	c-25.6-8-37.7-28.7-32.2-55.7C30.8,68.8,39.2,56.9,52,49.9c22.1-12.2,57-9.9,98.3,6.4c20.4,8.1,35.9,23.2,46.2,44.9
	c2.6,5.5,7.3,9.6,13,11.1c5.5,1.5,11.1,0.6,15.9-2.6c7.7-5.2,17.4-10.7,29.6-16.7c43.7-21.6,79.6-9,97.3,0.5
	c8.9,4.8,15.6,13.1,18.4,22.7c3.7,12.7,2.8,23.9-2.5,33.4c-7.9,14-23.1,19.7-31.6,21.9c-2.6,0.7-5.4,1-8.3,1.1
	c-63.1,1.3-84.1,14.4-90.9,22c-3.5,3.9-3.8,6.8-3.8,7.7l0.3,0.9l-0.2,0.3c0.1,2.8,1.2,70.6,0,103.2c-0.9,23.2-4.7,36.9-11.7,41.4
	C214.8,355.3,206.8,357.8,199.2,357.8L199.2,357.8z M185.4,335.4c4.7,3,16.2,8.5,24.5-0.6l1.8-2c1.1-2.3,3.4-9.2,4-26.8
	c1.1-30.6,0.1-95.4,0-101.7c-0.3-3.1-0.3-11.1,6.9-20.1c14.8-18.5,50.1-28.4,105.1-29.6c1.5,0,3-0.2,4.3-0.6
	c4.6-1.2,15.7-4.8,20.5-13.3c2.9-5.2,3.2-11.5,0.9-19.5c-1.5-5.1-5.1-9.4-9.7-11.9c-14.6-7.9-44.5-18.3-81.1-0.2
	c-11.5,5.7-20.5,10.8-27.6,15.6c-9,6.1-20,7.9-30.5,5c-10.7-3-19.5-10.5-24.3-20.7c-8.2-17.4-20.5-29.5-36.6-35.9
	C108,58.8,77.6,56.1,60.4,65.6C52.1,70.2,47.1,77.4,45,87.9c-3.6,17.9,3.2,29.7,20.1,34.9c2,0.6,4,0.9,6.2,0.9
	c20.7-0.5,88.8,0.9,103.7,38.8c2.8,5.1,12.6,27.2,11.4,87.1c-0.2,12.2-0.4,23-0.6,32.4C185.2,309.4,184.9,328.7,185.4,335.4
	L185.4,335.4z M185.4,335.4"/>
<rect id="XMLID_11_" x="26.5" y="41.7" fill="none" width="346.7" height="316.6"/>
<path id="XMLID_7_" fill="#493B4E" d="M114.4,75.6c-13.1-4.6-26.5-6.2-40.3-4.7c-4.2,0.5-4.3,7.2,0,6.7c13.3-1.4,26,0.1,38.6,4.4
	C116.7,83.5,118.5,77,114.4,75.6L114.4,75.6z M114.4,75.6"/>
<path id="XMLID_3_" fill="#FFFFFF" d="M115.1,73.5c-12.4-5.3-26-4.1-39.2-3.9c-8.5,0.1-8.6,13.5,0,13.5c10.2-0.1,22.9-2,32.5,2.1
	C116.2,88.5,123,76.9,115.1,73.5L115.1,73.5z M129.9,77c-8.5,0-8.6,13.5,0,13.5C138.5,90.4,138.5,77,129.9,77L129.9,77z M129.9,77"
	/>
</svg>
