<?xml version="1.0" encoding="utf-8"?>
<!-- Generator: Adobe Illustrator 19.0.0, SVG Export Plug-In . SVG Version: 6.00 Build 0)  -->
<svg version="1.1" id="图层_1" xmlns="http://www.w3.org/2000/svg" xmlns:xlink="http://www.w3.org/1999/xlink" x="0px" y="0px"
	 viewBox="0 0 400 400" enable-background="new 0 0 400 400" xml:space="preserve">
<g id="XMLID_319_">
	<path id="XMLID_240_" fill="#515151" d="M112.8,271.8c0,0-2.3,36.1,20.7,36.1h139c0,0,16.1,0,16.1-38.4L112.8,271.8z M112.8,271.8"
		/>
	<path id="XMLID_236_" fill="#515151" d="M267.2,279.5H138.9c-18.4,0-33-14.6-33-33V115.1c0-18.4,14.6-33,33-33h127.5
		c18.4,0,33,14.6,33,33v132.1C299.4,264.9,284.8,279.5,267.2,279.5L267.2,279.5z M138.9,97.5c-9.2,0-17.7,7.7-17.7,17.7v132.1
		c0,9.2,7.7,17.7,17.7,17.7h127.5c9.2,0,17.7-7.7,17.7-17.7V115.1c0-9.2-7.7-17.7-17.7-17.7H138.9z M138.9,97.5"/>
	<path id="XMLID_233_" fill="#515151" d="M244.4,251.8h-82.8c-14.8,0-27.9-12.2-27.9-27.9v-86.3c0-14.8,12.2-27.9,27.9-27.9h82.8
		c14.8,0,27.9,12.2,27.9,27.9v86.3C272.3,239.6,259.2,251.8,244.4,251.8L244.4,251.8z M244.4,251.8"/>
	<path id="XMLID_229_" fill="#515151" d="M142.7,316.3h-3.8c-18.4,0-33-14.6-33-33v-40.7c0-4.6,3.1-7.7,7.7-7.7
		c4.6,0,7.7,3.1,7.7,7.7v40.7c0,9.2,7.7,17.7,17.7,17.7h3.8c4.6,0,7.7,3.1,7.7,7.7C150.4,313.3,147.3,316.3,142.7,316.3L142.7,316.3
		z M267.2,316.3h-3.1c-4.6,0-7.7-3.1-7.7-7.7c0-4.6,3.1-7.7,7.7-7.7h3.1c9.2,0,17.7-7.7,17.7-17.7v-40.7c0-4.6,3.1-7.7,7.7-7.7
		c4.6,0,7.7,3.1,7.7,7.7v40.7C299.4,301.8,284.8,316.3,267.2,316.3L267.2,316.3z M267.2,316.3"/>
	<path id="XMLID_197_" fill="#515151" d="M111.3,170.4H75.9c-4.6,0-7.7-3.1-7.7-7.7c0-4.6,3.1-7.7,7.7-7.7h35.3
		c4.6,0,7.7,3.1,7.7,7.7C118.9,167.4,115.1,170.4,111.3,170.4L111.3,170.4z M111.3,200.4H75.9c-4.6,0-7.7-3.1-7.7-7.7
		c0-4.6,3.1-7.7,7.7-7.7h35.3c4.6,0,7.7,3.1,7.7,7.7C118.9,197.3,115.1,200.4,111.3,200.4L111.3,200.4z M111.3,229.6H75.9
		c-4.6,0-7.7-3.1-7.7-7.7c0-4.6,3.1-7.7,7.7-7.7h35.3c4.6,0,7.7,3.1,7.7,7.7C118.9,226.5,115.1,229.6,111.3,229.6L111.3,229.6z
		 M111.3,140.5H75.9c-4.6,0-7.7-3.1-7.7-7.7s3.1-7.7,7.7-7.7h35.3c4.6,0,7.7,3.1,7.7,7.7S115.1,140.5,111.3,140.5L111.3,140.5z
		 M111.3,259.5H75.9c-4.6,0-7.7-3.1-7.7-7.7c0-4.6,3.1-7.7,7.7-7.7h35.3c4.6,0,7.7,3.1,7.7,7.7C118.9,256.4,115.1,259.5,111.3,259.5
		L111.3,259.5z M111.3,259.5"/>
	<path id="XMLID_190_" fill="#515151" d="M330.1,170.4h-35.3c-4.6,0-7.7-3.1-7.7-7.7c0-4.6,3.1-7.7,7.7-7.7h35.3
		c4.6,0,7.7,3.1,7.7,7.7C337.8,167.4,334,170.4,330.1,170.4L330.1,170.4z M330.1,200.4h-35.3c-4.6,0-7.7-3.1-7.7-7.7
		c0-4.6,3.1-7.7,7.7-7.7h35.3c4.6,0,7.7,3.1,7.7,7.7C337.8,197.3,334,200.4,330.1,200.4L330.1,200.4z M330.1,229.6h-35.3
		c-4.6,0-7.7-3.1-7.7-7.7c0-4.6,3.1-7.7,7.7-7.7h35.3c4.6,0,7.7,3.1,7.7,7.7C337.8,226.5,334,229.6,330.1,229.6L330.1,229.6z
		 M330.1,140.5h-35.3c-4.6,0-7.7-3.1-7.7-7.7s3.1-7.7,7.7-7.7h35.3c4.6,0,7.7,3.1,7.7,7.7S334,140.5,330.1,140.5L330.1,140.5z
		 M330.1,259.5h-35.3c-4.6,0-7.7-3.1-7.7-7.7c0-4.6,3.1-7.7,7.7-7.7h35.3c4.6,0,7.7,3.1,7.7,7.7C337.8,256.4,334,259.5,330.1,259.5
		L330.1,259.5z M330.1,259.5"/>
	<path id="XMLID_185_" fill="#515151" d="M231.1,337.9c-4.6,0-7.7-3.1-7.7-7.7v-35.3c0-4.6,3.1-7.7,7.7-7.7c4.6,0,7.7,3.1,7.7,7.7
		v35.3C238.7,334,235.7,337.9,231.1,337.9L231.1,337.9z M201.1,337.9c-4.6,0-7.7-3.1-7.7-7.7v-35.3c0-4.6,3.1-7.7,7.7-7.7
		c4.6,0,7.7,3.1,7.7,7.7v35.3C208.8,334,205.7,337.9,201.1,337.9L201.1,337.9z M171.9,337.9c-4.6,0-7.7-3.1-7.7-7.7v-35.3
		c0-4.6,3.1-7.7,7.7-7.7c4.6,0,7.7,3.1,7.7,7.7v35.3C179.6,334,175.8,337.9,171.9,337.9L171.9,337.9z M171.9,337.9"/>
	<path id="XMLID_148_" fill="#515151" d="M231.1,94.4c-4.6,0-7.7-3.1-7.7-7.7V69.8c0-4.6,3.1-7.7,7.7-7.7c4.6,0,7.7,3.1,7.7,7.7
		v16.9C238.7,91.3,235.7,94.4,231.1,94.4L231.1,94.4z M201.1,94.4c-4.6,0-7.7-3.1-7.7-7.7V69.8c0-4.6,3.1-7.7,7.7-7.7
		c4.6,0,7.7,3.1,7.7,7.7v16.9C208.8,91.3,205.7,94.4,201.1,94.4L201.1,94.4z M171.9,94.4c-4.6,0-7.7-3.1-7.7-7.7V69.8
		c0-4.6,3.1-7.7,7.7-7.7c4.6,0,7.7,3.1,7.7,7.7v16.9C179.6,91.3,175.8,94.4,171.9,94.4L171.9,94.4z M171.9,94.4"/>
</g>
</svg>
