<?xml version="1.0" encoding="utf-8"?>
<!-- Generator: Adobe Illustrator 19.0.0, SVG Export Plug-In . SVG Version: 6.00 Build 0)  -->
<svg version="1.1" id="图层_1" xmlns="http://www.w3.org/2000/svg" xmlns:xlink="http://www.w3.org/1999/xlink" x="0px" y="0px"
	 viewBox="0 0 400 400" enable-background="new 0 0 400 400" xml:space="preserve">
<g id="XMLID_104_">
	<path id="XMLID_182_" fill="#00B3E3" d="M348.6,144.3c-2.1-3.5-7.1-6.4-11.2-6.4H64.3c-4.1,0-9.1,2.8-11.2,6.4l-21.3,35.9
		c-2.1,3.5-0.5,6.4,3.6,6.4h331c4.1,0,5.7-2.8,3.6-6.4L348.6,144.3z M348.6,144.3"/>
	<path id="XMLID_178_" d="M354.2,153.7H225.8V165H361L354.2,153.7z M40.8,165h133.7v-11.3H47.6L40.8,165z M40.8,165"/>
	<path id="XMLID_175_" fill="#D1D3D3" d="M238.6,184.7L200.1,123l-38.5,61.8H32.5v149.4h335.3V184.7H238.6z M238.6,184.7"/>
	<path id="XMLID_172_" d="M250.6,192.8c-2.8,0-6.3-1.9-7.8-4.3l-2.3-3.7h-1.9l-35.9-57.6c-1.7-0.8-3.5-0.8-5.3,0l-35.9,57.6h-1.9
		l-2.3,3.7c-1.5,2.4-5,4.3-7.8,4.3H32.5v19.8h123.4c2.8,0,6.2-2,7.6-4.4l30.1-46.1c3.5-6,9.3-6,12.8,0l30.1,46.1
		c1.4,2.4,4.8,4.4,7.6,4.4h123.4v-19.8H250.6z M250.6,192.8"/>
	<path id="XMLID_164_" fill="#A4A9AD" d="M335.2,216.2h32.6v15.7h-32.6V216.2z M237.6,248.6h32.6v15.7h-32.6V248.6z M296.5,304.2
		h32.6v15.7h-32.6V304.2z M127.5,308.4h32.6v15.7h-32.6V308.4z M32.5,231.2h32.6v15.7H32.5V231.2z M111.2,198.8h32.6v15.7h-32.6
		V198.8z M111.2,198.8"/>
	<rect id="XMLID_86_" x="172.2" y="257.2" fill="#333E48" width="55.9" height="76.9"/>
	<path id="XMLID_158_" fill="#FFFFFF" d="M182.8,275h11.3v21.3h-11.3V275z M206.1,275h11.3v21.3h-11.3V275z M113.7,244.3h32.9v45.2
		h-32.9V244.3z M113.7,244.3"/>
	<rect id="XMLID_81_" x="113.7" y="244.3" width="32.9" height="10"/>
	<rect id="XMLID_80_" x="113.7" y="261.2" fill="#A93439" width="32.9" height="11.3"/>
	<path id="XMLID_152_" fill="#FF5959" d="M119.3,283.8h21.6v-33.9h-21.6V283.8z M146.6,295.1h-32.9c-3.1,0-5.7-2.5-5.7-5.7v-45.2
		c0-3.1,2.5-5.7,5.7-5.7h32.9c3.1,0,5.7,2.5,5.7,5.7v45.2C152.2,292.6,149.7,295.1,146.6,295.1L146.6,295.1z M146.6,295.1"/>
	<rect id="XMLID_76_" x="49.9" y="244.3" fill="#FFFFFF" width="32.9" height="45.2"/>
	<rect id="XMLID_75_" x="49.9" y="244.3" width="32.9" height="10"/>
	<rect id="XMLID_74_" x="49.9" y="261.2" fill="#A93439" width="32.9" height="11.3"/>
	<path id="XMLID_145_" fill="#FF5959" d="M55.5,283.8h21.6v-33.9H55.5V283.8z M82.8,295.1H49.9c-3.1,0-5.7-2.5-5.7-5.7v-45.2
		c0-3.1,2.5-5.7,5.7-5.7h32.9c3.1,0,5.7,2.5,5.7,5.7v45.2C88.4,292.6,85.9,295.1,82.8,295.1L82.8,295.1z M82.8,295.1"/>
	<rect id="XMLID_70_" x="253.7" y="244.3" fill="#FFFFFF" width="32.9" height="45.2"/>
	<rect id="XMLID_69_" x="253.7" y="244.3" width="32.9" height="10"/>
	<rect id="XMLID_68_" x="253.7" y="261.2" fill="#A93439" width="32.9" height="11.3"/>
	<path id="XMLID_138_" fill="#FF5959" d="M259.4,283.8H281v-33.9h-21.6V283.8z M286.6,295.1h-32.9c-3.1,0-5.7-2.5-5.7-5.7v-45.2
		c0-3.1,2.5-5.7,5.7-5.7h32.9c3.1,0,5.7,2.5,5.7,5.7v45.2C292.2,292.6,289.7,295.1,286.6,295.1L286.6,295.1z M286.6,295.1"/>
	<rect id="XMLID_64_" x="317.5" y="244.3" fill="#FFFFFF" width="32.9" height="45.2"/>
	<rect id="XMLID_63_" x="317.5" y="244.3" width="32.9" height="10"/>
	<rect id="XMLID_62_" x="317.5" y="261.2" fill="#A93439" width="32.9" height="11.3"/>
	<path id="XMLID_131_" fill="#FF5959" d="M323.1,283.8h21.6v-33.9h-21.6V283.8z M350.4,295.1h-32.9c-3.1,0-5.7-2.5-5.7-5.7v-45.2
		c0-3.1,2.5-5.7,5.7-5.7h32.9c3.1,0,5.7,2.5,5.7,5.7v45.2C356,292.6,353.5,295.1,350.4,295.1L350.4,295.1z M350.4,295.1"/>
	<rect id="XMLID_58_" x="200.1" y="55.4" fill="#FFB819" width="65.3" height="37.4"/>
	<rect id="XMLID_57_" x="200.1" y="55.4" width="17.1" height="37.4"/>
	<g id="XMLID_121_">
		<defs>
			<rect id="XMLID_27_" x="24.4" y="44.3" width="353.3" height="307.3"/>
		</defs>
		<clipPath id="XMLID_3_">
			<use xlink:href="#XMLID_27_"  overflow="visible"/>
		</clipPath>
		<path id="XMLID_126_" clip-path="url(#XMLID_3_)" fill="#333E48" d="M200.1,128.6c-3.1,0-5.7-2.5-5.7-5.7V50.2
			c0-3.1,2.5-5.7,5.7-5.7c3.1,0,5.7,2.5,5.7,5.7V123C205.8,126.1,203.3,128.6,200.1,128.6L200.1,128.6z M200.1,128.6"/>
		<path id="XMLID_123_" clip-path="url(#XMLID_3_)" fill="#0071CE" d="M206.9,117.2c-3.7-5.9-9.8-5.9-13.5,0l-36,57.4
			c-1.5,2.4-5,4.3-7.8,4.3H29.4c-2.8,0-5.1,2.3-5.1,5.1v9.7c0,2.8,2.3,5.1,5.1,5.1h126.6c2.8,0,6.2-2,7.6-4.4l30.1-46.1
			c3.5-6,9.3-6,12.8,0l30.1,46.1c1.4,2.4,4.8,4.4,7.6,4.4h126.5c2.8,0,5.1-2.3,5.1-5.1V184c0-2.8-2.3-5.1-5.1-5.1H250.6
			c-2.8,0-6.3-1.9-7.8-4.3L206.9,117.2z M206.9,117.2"/>
	</g>
	<path id="XMLID_118_" fill="#FFFFFF" d="M174.5,216.2c0,9.2,4.9,17.6,12.8,22.2c7.9,4.6,17.7,4.6,25.7,0
		c7.9-4.6,12.8-13.1,12.8-22.2c0-14.2-11.5-25.7-25.7-25.7C186,190.5,174.5,202,174.5,216.2L174.5,216.2z M174.5,216.2"/>
	<g id="XMLID_110_">
		<defs>
			<rect id="XMLID_20_" x="24.4" y="44.3" width="353.3" height="307.3"/>
		</defs>
		<clipPath id="XMLID_4_">
			<use xlink:href="#XMLID_20_"  overflow="visible"/>
		</clipPath>
		<path id="XMLID_115_" clip-path="url(#XMLID_4_)" fill="#333E48" d="M210,210.5h-4.2v-4.2c0-3.1-2.5-5.7-5.7-5.7
			c-3.1,0-5.7,2.5-5.7,5.7v9.8c0,3.1,2.5,5.7,5.7,5.7h9.8c3.1,0,5.7-2.5,5.7-5.7C215.6,213.1,213.1,210.5,210,210.5L210,210.5z
			 M210,210.5"/>
		<path id="XMLID_112_" clip-path="url(#XMLID_4_)" fill="#00AD68" d="M377.5,348.1c0,1.7-1.4,3-3,3h-347c-1.7,0-3-1.4-3-3v-10.9
			c0-1.7,1.4-3,3-3h347c1.7,0,3,1.4,3,3V348.1z M377.5,348.1"/>
	</g>
	<rect id="XMLID_19_" x="155.3" y="334.2" fill="#A4A9AD" width="91.2" height="17"/>
	<path id="XMLID_105_" fill="#218649" d="M359.7,334.2c0-14.2-11.5-25.8-25.8-25.8c-14.2,0-25.8,11.5-25.8,25.8H359.7z M108.5,334.2
		c0-14.2-11.5-25.8-25.8-25.8c-14.2,0-25.8,11.5-25.8,25.8H108.5z M108.5,334.2"/>
</g>
</svg>
