<?xml version="1.0" encoding="utf-8"?>
<!-- Generator: Adobe Illustrator 19.0.0, SVG Export Plug-In . SVG Version: 6.00 Build 0)  -->
<svg version="1.1" id="图层_1" xmlns="http://www.w3.org/2000/svg" xmlns:xlink="http://www.w3.org/1999/xlink" x="0px" y="0px"
	 viewBox="0 0 400 400" enable-background="new 0 0 400 400" xml:space="preserve">
<g id="XMLID_321_">
	<path id="XMLID_322_" fill="#515151" d="M300.2,157c0-52.1-42.8-94.4-95.5-94.4c-52.8,0-95.5,42.2-95.5,94.4
		c0,30.1,14.3,56.8,36.5,74.1c-39.8,20-67.8,60-70.9,106.4h14.3c3.4-43.4,31.5-81.9,70.9-97.2c12.5,5.9,30,11.1,44.8,11.1
		c14.8,0,28.8-3.4,41.3-9.4l9.8-5.7l7.9-5.2C285.9,213.8,300.2,187,300.2,157L300.2,157z M204.7,235.9c-44.2,0-80-35.4-80-79
		c0-43.6,35.8-79,80-79c44.2,0,80,35.4,80,79C284.7,200.6,250.7,235.9,204.7,235.9L204.7,235.9z M285.5,244.9L285.5,244.9
		c-1.6-1.4-3.7-2.3-6-2.3c-4.8,0-8.7,1.8-8.7,6.6c0,3.3,1.9,6.1,4.6,7.6l-0.1,0.1c26.1,18.7,39.3,46.9,41.9,80.5h17.4
		C332.2,300.1,313.5,266.8,285.5,244.9L285.5,244.9z M285.5,244.9"/>
</g>
</svg>
