<?xml version="1.0" encoding="utf-8"?>
<!-- Generator: Adobe Illustrator 19.0.0, SVG Export Plug-In . SVG Version: 6.00 Build 0)  -->
<svg version="1.1" id="图层_1" xmlns="http://www.w3.org/2000/svg" xmlns:xlink="http://www.w3.org/1999/xlink" x="0px" y="0px"
	 viewBox="0 0 400 400" enable-background="new 0 0 400 400" xml:space="preserve">
<g id="XMLID_107_">
	<g id="XMLID_108_">
		<path id="XMLID_109_" fill="#13227A" d="M143.4,128.3c-3.6-28.2-4-54.3-0.2-77.7c51-34.7,75.2,6.1,114.2,0
			c3.1,24.4,1.9,57.2-1.7,76.6c-2.3,12.9-7.7,24.4-15.2,33.6c-10.6,12.9-24.9,20.9-41.1,20.9c-16.1,0-30.7-8.1-41.1-20.9
			C151.1,151.9,145.9,140.8,143.4,128.3L143.4,128.3z M117.7,349h168.5l-10,14.6H126L117.7,349z M295.2,223.5l18.6,70.6
			c6.5,24.8,3.5,42.4-25.1,42.4h-6.3v-97.1h-75.6l21.7-49.9l7.9-6.1l42.6,10.6l2.1,0.6l1.3,1.7c6.3,8.3,10.4,17.5,12.5,27.4
			L295.2,223.5z M122.7,336.5h-11.5c-28.4,0-31.5-17.7-25.1-42.4l18.6-70.6c2.5-11.7,7.9-20.9,15.5-28l1.2-1l1.5-0.4l41.1-10.6
			l8.1,6.1l23.6,49.9h-72.9V336.5z M122.7,336.5"/>
	</g>
</g>
<text id="XMLID_352_" transform="matrix(1 0 0 1 131.8829 269.6611)" fill="#FFFFFF" font-family="'OCRAStd'" font-size="7.9178px">#define ylb  good</text>
<text id="XMLID_418_" transform="matrix(1 0 0 1 131.8829 284.5786)" fill="#FFFFFF" font-family="'OCRAStd'" font-size="7.9178px">#define ylb  good</text>
<text id="XMLID_419_" transform="matrix(1 0 0 1 131.883 298.5303)" fill="#FFFFFF" font-family="'OCRAStd'" font-size="7.9178px">#define ylb  good</text>
</svg>
