<?xml version="1.0" encoding="utf-8"?>
<!-- Generator: Adobe Illustrator 21.0.0, SVG Export Plug-In . SVG Version: 6.00 Build 0)  -->
<svg version="1.1" id="图层_1" xmlns="http://www.w3.org/2000/svg" xmlns:xlink="http://www.w3.org/1999/xlink" x="0px" y="0px"
	 viewBox="0 0 400 400" enable-background="new 0 0 400 400" xml:space="preserve">
<g>
	<g>
		<path fill="#666666" d="M358.3,252.9l-0.7-5.5l-1.4-6.2l-0.7-2.7l-0.7-3.4l-1.4-2.7l-0.7-3.4l-2.7-6.9l-2.7-5.5l-2.1-4.1l-2.1-4.8
			l-2.1-3.4l-2.1-3.4l-2.1-3.4l-3.4-4.8l-4.1-6.9l-0.7-1.4l-0.7-0.7v-0.7l0.7-2.1l1.4-2.1l0.7-4.1l0.7-2.1v-6.9l-0.7-2.1l-0.7-2.7
			l-0.7-3.4l-0.7-2.7l-1.4-2.7l-1.4-2.1l-0.7-2.7l-1.4-2.1l-1.4-2.7l-0.7-1.4l-0.7-0.7l-0.7-6.2l-0.7-3.4l-0.7-4.8l-0.7-4.8
			l-1.4-6.2l-0.7-2.7l-0.7-2.7l-1.4-3.4l-0.7-3.4l-1.4-2.7l-1.4-3.4l-2.7-6.2l-1.4-3.4l-2.1-3.4l-2.1-2.7l-1.4-3.4l-2.7-3.4
			l-2.1-2.7l-2.7-3.4l-5.5-5.5l-3.4-2.7l-2.1-1.4l-1.4-1.4l-3.4-2.1l-4.1-2.7l-4.1-2.7l-4.1-2.1l-4.8-2.1l-4.8-2.1l-4.1-1.4
			l-5.5-1.4l-4.1-1.4l-5.5-1.4l-4.1-0.7l-5.5-0.7l-4.8-0.7l-4.8-0.7h-19.2l-4.8,0.7l-4.8,0.7l-4.8,1.4l-4.1,0.7l-4.8,0.7l-4.1,1.4
			l-4.1,2.1l-4.1,1.4l-4.1,1.4l-4.1,2.1l-3.4,2.1l-3.4,2.1L144,53l-3.4,2.7l-2.1,2.7l-4.8,3.4l-3.4,4.1l-3.4,3.4l-2.7,3.4l-2.7,4.1
			l-2.7,3.4l-2.1,3.4l-1.4,2.1l-1.4,1.4l-2.1,4.1l-2.1,3.4l-1.4,2.7l-2.7,6.9l-1.4,2.7l-0.7,3.4l-1.4,2.7l-1.4,5.5l-0.7,4.8
			l-0.7,4.1l-0.7,3.4v7.6l-1.4,0.7l-1.4,2.7l-0.7,1.4l-0.7,3.4l-0.7,2.7l-0.7,2.7v3.4l-2.1,3.4l-1.4,2.7l-0.7,2.7l-0.7,2.1l-0.7,2.7
			l-0.7,2.1v6.9l0.7,2.7l0.7,2.1l-1.4,0.7l-2.7,2.1l-4.1,4.1l-2.7,2.1l-8.2,8.2l-2.7,3.4l-2.1,2.7l-2.7,4.1l-2.7,3.4l-2.7,4.1
			L54,222l-1.4,4.1l-2.1,3.4l-1.4,4.1l-1.4,3.4l-0.7,3.4l-1.4,4.1l-0.7,2.7l-0.7,3.4l-0.7,3.4l-0.7,3.4v16.5l1.4,4.8v1.4l0.7,2.1
			l0.7,2.1l0.7,1.4l0.7,2.1l0.7,0.7l0.7,0.7v0.7h0.7l2.7-0.7l2.1-0.7l2.1-0.7l2.7-1.4l2.1-1.4l1.4-1.4l2.1-2.1l2.1-2.1l2.7-4.1
			l1.4-1.4l0.7-2.1l2.1-2.7V268l0.7-0.7v-1.4h0.7l0.7-0.7v0.7H76l1.4,4.1l0.7,3.4l1.4,3.4l1.4,2.7l1.4,3.4l4.1,8.2l2.1,2.1l0.7,2.1
			l3.4,4.1l11,11l3.4,2.7l1.4,0.7l0.7,0.7v0.7h-0.7l-0.7,0.7h-4.8l-2.1,0.7l-2.1,0.7h-2.1l-2.1,0.7l-1.4,1.4l-1.4,0.7l-2.1,0.7
			l-0.7,0.7l-1.4,0.7l-1.4,0.7L85,325l-0.7,0.7l-1.4,2.7l-0.7,2.1l-0.7,1.4v4.1l-0.7,1.4v5.5l0.7,1.4l0.7,2.1l0.7,1.4l0.7,0.7
			l0.7,1.4l0.7,0.7l1.4,1.4l0.7,0.7l2.1,2.1l5.5,2.7l2.7,1.4l3.4,1.4l3.4,0.7l3.4,1.4l4.1,0.7l4.1,0.7l3.4,0.7h4.1l8.2,1.4h26.1
			l3.4-0.7h2.7l2.7-0.7l4.8-0.7l2.7-0.7l3.4-0.7l5.5-2.7l2.7-0.7l2.1-1.4l4.1-2.1l4.1-2.1l2.1-1.4l2.1-2.1l3.4,0.7h11l1.4,0.7
			l1.4,0.7l2.7,0.7l2.1,0.7l4.8,1.4l5.5,2.1l4.8,1.4l4.8,1.4l4.8,0.7l5.5,0.7l4.8,0.7l4.8,0.7l4.8,0.7h22.7l4.8-0.7l4.1-0.7l3.4-0.7
			l4.1-0.7l3.4-0.7l1.4-0.7l2.1-0.7l3.4-1.4l5.5-2.7l2.1-1.4l2.1-1.4l1.4-0.7l0.7-1.4l2.7-4.1l0.7-0.7v-0.7l0.7-1.4l0.7-1.4v-3.4
			l-0.7-1.4l-0.7-2.1v-1.4l-1.4-1.4l-0.7-1.4l-5.5-5.5l-3.4-2.1l-3.4-2.1l-3.4-2.1l-7.6-4.1l-2.1-1.4h-0.7l-0.7-0.7l4.1-4.1l2.1-1.4
			l1.4-2.1l2.1-4.1l2.7-3.4l2.1-3.4l2.1-3.4l2.7-6.9l2.1-6.2l1.4-3.4l0.7-1.4l0.7-1.4l0.7-0.7h0.7l2.1,4.1l2.1,4.1l2.7,4.1l1.4,2.7
			l1.4,2.1l1.4,1.4l0.7,1.4l1.4,0.7l0.7,0.7h0.7l1.4,1.4h3.4l0.7-0.7l1.4-0.7l0.7-0.7l1.4-1.4l0.7-1.4l1.4-0.7l1.4-2.7l0.7-2.1
			l0.7-1.4l0.7-4.1l1.4-4.1v-4.1l0.7-2.7v-7.6L358.3,252.9z M358.3,252.9"/>
	</g>
</g>
</svg>
