<?xml version="1.0" encoding="utf-8"?>
<!-- Generator: Adobe Illustrator 21.0.0, SVG Export Plug-In . SVG Version: 6.00 Build 0)  -->
<svg version="1.1" id="图层_1" xmlns="http://www.w3.org/2000/svg" xmlns:xlink="http://www.w3.org/1999/xlink" x="0px" y="0px"
	 viewBox="0 0 400 400" enable-background="new 0 0 400 400" xml:space="preserve">
<g>
	<g>
		<path fill="#666666" d="M241.8,232.2c-19.2,15.4-31.1,23-43.1,23c-11.5,0-23-7.1-40.9-21.1L51.3,327.9h300.1l-108.3-96.6
			C242.7,231.6,242.2,232,241.8,232.2L241.8,232.2z M241.8,232.2"/>
		<path fill="#666666" d="M115.5,201.3C90.2,181.8,61,159.3,33,137.1v176.8c0,0.6,0.3,1,0.3,1.6l107.4-94.5
			C133,214.8,124.6,208.4,115.5,201.3L115.5,201.3z M115.5,201.3"/>
		<path fill="#666666" d="M372.2,318c0.4-1.3,0.8-2.6,0.8-4.1V129.6c-33.6,26.2-82.3,64.1-113,88.3L372.2,318z M372.2,318"/>
		<path fill="#666666" d="M351.8,72.9H54.2C46.5,72.9,33,86.4,33,94.2v16.7c31.3,24.9,65.4,51.2,94.2,73.4
			c15.9,12.3,30.2,23.3,41.4,32.1c30.3,23.8,30.3,23.8,61.3-1c28-22.4,103.3-81,143.1-112v-9.3C373,86.4,359.5,72.9,351.8,72.9
			L351.8,72.9z M351.8,72.9"/>
	</g>
</g>
</svg>
