<?xml version="1.0" encoding="utf-8"?>
<!-- Generator: Adobe Illustrator 21.0.0, SVG Export Plug-In . SVG Version: 6.00 Build 0)  -->
<svg version="1.1" id="图层_1" xmlns="http://www.w3.org/2000/svg" xmlns:xlink="http://www.w3.org/1999/xlink" x="0px" y="0px"
	 viewBox="0 0 400 400" enable-background="new 0 0 400 400" xml:space="preserve">
<g>
	<g>
		<path fill="#666666" d="M33.6,204.3c0,73.5,47.1,136.1,112.8,159c8.8,2.2,7.5-4.1,7.5-8.4v-29.2c-51.1,6-53.1-27.8-56.6-33.4
			c-6.9-11.8-23.3-14.9-18.4-20.5c11.6-6,23.5,1.5,37.2,21.8c9.9,14.7,29.3,12.2,39.1,9.8c2.1-8.8,6.7-16.7,13.1-22.9
			c-52.9-9.5-75-41.8-75-80.2c0-18.6,6.1-35.7,18.2-49.6c-7.7-22.8,0.7-42.3,1.8-45.2c21.9-2,44.6,15.7,46.3,17
			c12.4-3.4,26.6-5.1,42.5-5.1c16,0,30.2,1.8,42.7,5.2c4.2-3.2,25.3-18.4,45.7-16.5c1.1,2.9,9.3,21.9,2.1,44.4
			c12.2,13.8,18.4,31.1,18.4,49.8c0,38.5-22.2,70.8-75.3,80.1c8.8,8.7,14.3,20.9,14.3,34.3v42.4c0.3,3.4,0,6.7,5.7,6.7
			c66.6-22.5,114.6-85.4,114.6-159.6C370.4,111.3,295,36,202,36C109,35.9,33.6,111.3,33.6,204.3L33.6,204.3z M33.6,204.3"/>
	</g>
</g>
</svg>
