<?xml version="1.0" encoding="utf-8"?>
<!-- Generator: Adobe Illustrator 21.0.0, SVG Export Plug-In . SVG Version: 6.00 Build 0)  -->
<svg version="1.1" id="图层_1" xmlns="http://www.w3.org/2000/svg" xmlns:xlink="http://www.w3.org/1999/xlink" x="0px" y="0px"
	 viewBox="0 0 400 400" enable-background="new 0 0 400 400" xml:space="preserve">
<g>
	<g>
		<path fill="#666666" d="M373,239.6c0-47.1-47.1-85.5-100.1-85.5c-56.1,0-100.2,38.4-100.2,85.5c0,47.2,44.1,85.5,100.2,85.5
			c11.7,0,23.6-3,35.4-5.9l32.4,17.7l-8.9-29.5C355.4,289.7,373,266.1,373,239.6L373,239.6z M240.4,224.9c-5.9,0-11.7-5.9-11.7-11.8
			c0-5.9,5.9-11.7,11.7-11.7c8.9,0,14.8,5.9,14.8,11.7C255.2,219,249.3,224.9,240.4,224.9L240.4,224.9z M305.3,224.9
			c-5.9,0-11.7-5.9-11.7-11.8c0-5.9,5.9-11.7,11.7-11.7c8.9,0,14.7,5.9,14.7,11.7C320,219,314,224.9,305.3,224.9L305.3,224.9z
			 M305.3,224.9"/>
		<path fill="#666666" d="M263.2,143.7c3.9,0,7.7,0.3,11.6,0.7c-10.4-48.5-62.2-84.5-121.4-84.5C87.2,59.9,33,105,33,162.3
			c0,33.1,18,60.2,48.1,81.3l-12,36.2l42.1-21.2c15.1,2.9,27.2,6,42.1,6c3.7,0,7.5-0.1,11.2-0.5c-2.4-8-3.7-16.5-3.7-25.2
			C160.8,186.4,206,143.7,263.2,143.7L263.2,143.7z M198.4,111.1c9.1,0,15.1,6,15.1,15.1c0,9.1-6,15.1-15.1,15.1
			c-9.1,0-18.1-6-18.1-15.1C180.4,117.1,189.5,111.1,198.4,111.1L198.4,111.1z M114.2,141.2c-9.1,0-18.1-6-18.1-15.1
			c0-9.1,9.1-15.1,18.1-15.1c9.1,0,15.1,6,15.1,15.1C129.2,135.1,123.2,141.2,114.2,141.2L114.2,141.2z M114.2,141.2"/>
	</g>
</g>
</svg>
